<svg width="21" height="20" viewBox="0 0 21 20" fill="none" xmlns="http://www.w3.org/2000/svg">
<path d="M10.44 0.542419C15.7525 0.542419 20.1275 4.91742 20.1275 10.2299C20.1275 15.5815 15.7525 19.9174 10.44 19.9174C5.08844 19.9174 0.752502 15.5815 0.752502 10.2299C0.752502 4.91742 5.08844 0.542419 10.44 0.542419ZM16.8072 5.03461C16.6509 5.26898 15.2838 7.02679 12.1978 8.27679C12.5103 8.90179 12.7056 9.37054 12.94 9.91742C15.6744 9.56586 18.4088 10.1127 18.6822 10.1909C18.6822 8.23773 17.9791 6.44086 16.8072 5.03461ZM15.9088 4.05804C13.8775 2.26117 11.1041 1.59711 8.48688 2.22211C8.72125 2.53461 10.2056 4.56586 11.5728 7.06586C14.5025 5.97211 15.7525 4.29242 15.9088 4.05804ZM6.88531 2.76898C4.58063 3.86273 2.86188 6.01117 2.315 8.55023C2.70563 8.58929 6.10406 8.58929 9.97125 7.57367C8.60406 5.11273 7.11969 3.08148 6.88531 2.76898ZM2.15875 10.269C2.15875 12.3784 2.94 14.3315 4.26813 15.7768C5.59625 13.5112 8.33063 11.0893 11.3384 10.2299C11.1041 9.76117 10.9088 9.29242 10.6353 8.82367C6.53375 10.0737 2.51031 10.0346 2.15875 9.99554C2.15875 10.1127 2.15875 10.1909 2.15875 10.269ZM5.32281 16.7924C7.78375 18.7065 10.9869 19.019 13.6431 17.8862C13.5259 17.144 13.0572 14.6049 11.8853 11.5971C8.565 12.7299 6.22125 15.0346 5.32281 16.7924ZM15.0494 17.1049C16.8853 15.8549 18.2134 13.8627 18.6041 11.558C18.2916 11.4799 16.0259 10.8159 13.4478 11.2065C14.5025 14.2143 14.9713 16.6362 15.0494 17.1049Z" fill="#FF0000"/>
</svg>
