<svg width="21" height="17" viewBox="0 0 21 17" fill="none" xmlns="http://www.w3.org/2000/svg">
<path d="M18.8997 4.16742C18.8997 4.36273 18.8997 4.51898 18.8997 4.71429C18.8997 10.144 14.7981 16.3549 7.25906 16.3549C4.91531 16.3549 2.76688 15.6909 0.970001 14.519C1.2825 14.558 1.595 14.5971 1.94656 14.5971C3.86063 14.5971 5.61844 13.933 7.02469 12.8393C5.22781 12.8002 3.70438 11.6284 3.19656 9.98773C3.47 10.0268 3.70438 10.0659 3.97781 10.0659C4.32938 10.0659 4.72 9.98773 5.0325 9.90961C3.1575 9.51898 1.75125 7.87836 1.75125 5.88617V5.84711C2.29813 6.15961 2.96219 6.31586 3.62625 6.35492C2.49344 5.61273 1.79031 4.36273 1.79031 2.95648C1.79031 2.17523 1.98563 1.47211 2.33719 0.886169C4.36844 3.34711 7.41531 4.98773 10.8138 5.18304C10.7356 4.87054 10.6966 4.55804 10.6966 4.24554C10.6966 1.97992 12.5325 0.143982 14.7981 0.143982C15.97 0.143982 17.0247 0.612732 17.8059 1.43304C18.7044 1.23773 19.6028 0.886169 20.3841 0.417419C20.0716 1.39398 19.4466 2.17523 18.5872 2.68304C19.4075 2.60492 20.2278 2.37054 20.9309 2.05804C20.3841 2.87836 19.6809 3.58148 18.8997 4.16742Z" fill="#FF0000"/>
</svg>
